# WaveFront *.obj file (generated by Autodesk ATF)

mtllib cable cover.mtl

g Thingimabob for ribbon cable

v 0.260489 0.078000 -0.945000
v 0.001989 0.078000 -0.945000
v 0.001989 0.078000 -0.950000
v 0.260489 0.078000 -0.950000
v 0.001989 0.092500 -0.855000
v 0.260489 0.092500 -0.855000
v 0.260489 0.072500 -0.855000
v 0.001989 0.072500 -0.855000
v 0.260489 0.072500 -0.850000
v 0.001989 0.072500 -0.850000
v 0.001989 0.127000 -0.855000
v 0.260489 0.127000 -0.855000
v 0.260489 0.137013 -0.856128
v 0.260489 0.146525 -0.859456
v 0.260489 0.155057 -0.864818
v 0.260489 0.162182 -0.871943
v 0.260489 0.167544 -0.880475
v 0.260489 0.170872 -0.889987
v 0.260489 0.172000 -0.900000
v 0.260489 0.170872 -0.910013
v 0.260489 0.167544 -0.919525
v 0.260489 0.162182 -0.928057
v 0.260489 0.155057 -0.935182
v 0.260489 0.146525 -0.940544
v 0.260489 0.137013 -0.943872
v 0.260489 0.127000 -0.945000
v 0.260489 0.127000 -0.950000
v 0.260489 0.137396 -0.948907
v 0.260489 0.147337 -0.945677
v 0.260489 0.156389 -0.940451
v 0.260489 0.164157 -0.933457
v 0.260489 0.170301 -0.925000
v 0.260489 0.174553 -0.915451
v 0.260489 0.176726 -0.905226
v 0.260489 0.176726 -0.894774
v 0.260489 0.174553 -0.884549
v 0.260489 0.170301 -0.875000
v 0.260489 0.164157 -0.866543
v 0.260489 0.156389 -0.859549
v 0.260489 0.147337 -0.854323
v 0.260489 0.137396 -0.851093
v 0.260489 0.127000 -0.850000
v 0.001989 0.127000 -0.945000
v 0.001989 0.137013 -0.856128
v 0.001989 0.146525 -0.859456
v 0.001989 0.155057 -0.864818
v 0.001989 0.162182 -0.871943
v 0.001989 0.167544 -0.880475
v 0.001989 0.170872 -0.889987
v 0.001989 0.172000 -0.900000
v 0.001989 0.170872 -0.910013
v 0.001989 0.167544 -0.919525
v 0.001989 0.162182 -0.928057
v 0.001989 0.155057 -0.935182
v 0.001989 0.146525 -0.940544
v 0.001989 0.137013 -0.943872
v 0.131239 0.137013 -0.856128
v 0.131239 0.146525 -0.859456
v 0.131239 0.155057 -0.864818
v 0.131239 0.162182 -0.871943
v 0.131239 0.167544 -0.880475
v 0.131239 0.170872 -0.889987
v 0.131239 0.172000 -0.900000
v 0.131239 0.170872 -0.910013
v 0.131239 0.167544 -0.919525
v 0.131239 0.162182 -0.928057
v 0.131239 0.155057 -0.935182
v 0.131239 0.146525 -0.940544
v 0.131239 0.137013 -0.943872
v 0.001989 0.127000 -0.850000
v 0.001989 0.137396 -0.851093
v 0.001989 0.147337 -0.854323
v 0.001989 0.156389 -0.859549
v 0.001989 0.164157 -0.866543
v 0.001989 0.170301 -0.875000
v 0.001989 0.174553 -0.884549
v 0.001989 0.176726 -0.894774
v 0.001989 0.176726 -0.905226
v 0.001989 0.174553 -0.915451
v 0.001989 0.170301 -0.925000
v 0.001989 0.164157 -0.933457
v 0.001989 0.156389 -0.940451
v 0.001989 0.147337 -0.945677
v 0.001989 0.137396 -0.948907
v 0.001989 0.127000 -0.950000
v 0.131239 0.137396 -0.948907
v 0.131239 0.147337 -0.945677
v 0.131239 0.156389 -0.940451
v 0.131239 0.164157 -0.933457
v 0.131239 0.170301 -0.925000
v 0.131239 0.174553 -0.915451
v 0.131239 0.176726 -0.905226
v 0.131239 0.176726 -0.894774
v 0.131239 0.174553 -0.884549
v 0.131239 0.170301 -0.875000
v 0.131239 0.164157 -0.866543
v 0.131239 0.156389 -0.859549
v 0.131239 0.147337 -0.854323
v 0.131239 0.137396 -0.851093
vt 0.000000 -0.320900 0.000000
vt 0.005000 -0.320900 0.000000
vt 0.000000 -0.062400 0.000000
vt 0.005000 -0.062400 0.000000
vt 0.000000 0.000000 0.000000
vt 0.258500 0.000000 0.000000
vt 0.000000 0.020000 0.000000
vt 0.258500 0.020000 0.000000
vt -0.090000 -0.062400 0.000000
vt -0.095000 -0.062400 0.000000
vt -0.090000 -0.320900 0.000000
vt -0.095000 -0.320900 0.000000
vt -0.015000 0.258500 0.000000
vt -0.049500 0.258500 0.000000
vt -0.015000 0.000000 0.000000
vt -0.049500 0.000000 0.000000
vt -0.095000 0.052000 0.000000
vt -0.100000 0.052000 0.000000
vt -0.095000 0.017500 0.000000
vt -0.100000 -0.002500 0.000000
vt -0.095000 -0.002500 0.000000
vt -0.098907 0.062396 0.000000
vt -0.093872 0.062013 0.000000
vt -0.095677 0.072337 0.000000
vt -0.090544 0.071525 0.000000
vt -0.090451 0.081389 0.000000
vt -0.085182 0.080057 0.000000
vt -0.083457 0.089157 0.000000
vt -0.078057 0.087182 0.000000
vt -0.075000 0.095301 0.000000
vt -0.069525 0.092544 0.000000
vt -0.065451 0.099553 0.000000
vt -0.060013 0.095872 0.000000
vt -0.055226 0.101726 0.000000
vt -0.050000 0.097000 0.000000
vt -0.044774 0.101726 0.000000
vt -0.039987 0.095872 0.000000
vt -0.034549 0.099553 0.000000
vt -0.030475 0.092544 0.000000
vt -0.025000 0.095301 0.000000
vt -0.021943 0.087182 0.000000
vt -0.016543 0.089157 0.000000
vt -0.014818 0.080057 0.000000
vt -0.009549 0.081389 0.000000
vt -0.009456 0.071525 0.000000
vt -0.004323 0.072337 0.000000
vt -0.006128 0.062013 0.000000
vt -0.001093 0.062396 0.000000
vt -0.005000 0.052000 0.000000
vt -0.000000 0.052000 0.000000
vt -0.000000 0.003000 0.000000
vt -0.005000 0.003000 0.000000
vt -0.049000 0.000000 0.000000
vt -0.000000 0.000000 0.000000
vt -0.049000 0.258500 0.000000
vt -0.000000 0.258500 0.000000
vt 0.000000 -0.141372 0.000000
vt 0.258500 -0.141372 0.000000
vt 0.129250 -0.131274 0.000000
vt 0.258500 -0.131274 0.000000
vt 0.129250 -0.121176 0.000000
vt 0.258500 -0.121176 0.000000
vt 0.129250 -0.111078 0.000000
vt 0.258500 -0.111078 0.000000
vt 0.129250 -0.100980 0.000000
vt 0.258500 -0.100980 0.000000
vt 0.129250 -0.090882 0.000000
vt 0.258500 -0.090882 0.000000
vt 0.129250 -0.080784 0.000000
vt 0.258500 -0.080784 0.000000
vt 0.129250 -0.070686 0.000000
vt 0.258500 -0.070686 0.000000
vt 0.129250 -0.060588 0.000000
vt 0.258500 -0.060588 0.000000
vt 0.129250 -0.050490 0.000000
vt 0.258500 -0.050490 0.000000
vt 0.129250 -0.040392 0.000000
vt 0.258500 -0.040392 0.000000
vt 0.129250 -0.030294 0.000000
vt 0.258500 -0.030294 0.000000
vt 0.129250 -0.020196 0.000000
vt 0.258500 -0.020196 0.000000
vt 0.129250 -0.010098 0.000000
vt 0.258500 -0.010098 0.000000
vt 0.258500 0.000000 0.000000
vt 0.000000 0.000000 0.000000
vt 0.000000 -0.010098 0.000000
vt 0.000000 -0.020196 0.000000
vt 0.000000 -0.030294 0.000000
vt 0.000000 -0.040392 0.000000
vt 0.000000 -0.050490 0.000000
vt 0.000000 -0.060588 0.000000
vt 0.000000 -0.070686 0.000000
vt 0.000000 -0.080784 0.000000
vt 0.000000 -0.090882 0.000000
vt 0.000000 -0.100980 0.000000
vt 0.000000 -0.111078 0.000000
vt 0.000000 -0.121176 0.000000
vt 0.000000 -0.131274 0.000000
vt 0.095000 -0.002500 0.000000
vt 0.100000 -0.002500 0.000000
vt 0.095000 0.017500 0.000000
vt 0.100000 0.052000 0.000000
vt 0.095000 0.052000 0.000000
vt 0.098907 0.062396 0.000000
vt 0.093872 0.062013 0.000000
vt 0.095677 0.072337 0.000000
vt 0.090544 0.071525 0.000000
vt 0.090451 0.081389 0.000000
vt 0.085182 0.080057 0.000000
vt 0.083457 0.089157 0.000000
vt 0.078057 0.087182 0.000000
vt 0.075000 0.095301 0.000000
vt 0.069525 0.092544 0.000000
vt 0.065451 0.099553 0.000000
vt 0.060013 0.095872 0.000000
vt 0.055226 0.101726 0.000000
vt 0.050000 0.097000 0.000000
vt 0.044774 0.101726 0.000000
vt 0.039987 0.095872 0.000000
vt 0.034549 0.099553 0.000000
vt 0.030475 0.092544 0.000000
vt 0.025000 0.095301 0.000000
vt 0.021943 0.087182 0.000000
vt 0.016543 0.089157 0.000000
vt 0.014818 0.080057 0.000000
vt 0.009549 0.081389 0.000000
vt 0.009456 0.071525 0.000000
vt 0.004323 0.072337 0.000000
vt 0.006128 0.062013 0.000000
vt 0.001093 0.062396 0.000000
vt 0.005000 0.052000 0.000000
vt 0.000000 0.052000 0.000000
vt 0.005000 0.003000 0.000000
vt 0.000000 0.003000 0.000000
vt 0.049000 0.320900 0.000000
vt 0.000000 0.320900 0.000000
vt 0.049000 0.062400 0.000000
vt 0.000000 0.062400 0.000000
vt -0.000170 0.062400 0.000000
vt 0.054330 0.062400 0.000000
vt -0.000170 0.320900 0.000000
vt 0.054330 0.320900 0.000000
vt -0.062400 0.107338 0.000000
vt -0.062400 0.117810 0.000000
vt -0.191650 0.107338 0.000000
vt -0.320900 0.117810 0.000000
vt -0.320900 0.107338 0.000000
vt -0.191650 0.096866 0.000000
vt -0.320900 0.096866 0.000000
vt -0.191650 0.086394 0.000000
vt -0.320900 0.086394 0.000000
vt -0.191650 0.075922 0.000000
vt -0.320900 0.075922 0.000000
vt -0.191650 0.065450 0.000000
vt -0.320900 0.065450 0.000000
vt -0.191650 0.054978 0.000000
vt -0.320900 0.054978 0.000000
vt -0.191650 0.044506 0.000000
vt -0.320900 0.044506 0.000000
vt -0.191650 0.034034 0.000000
vt -0.320900 0.034034 0.000000
vt -0.191650 0.023562 0.000000
vt -0.320900 0.023562 0.000000
vt -0.191650 0.013090 0.000000
vt -0.320900 0.013090 0.000000
vt -0.191650 0.002618 0.000000
vt -0.320900 0.002618 0.000000
vt -0.191650 -0.007854 0.000000
vt -0.320900 -0.007854 0.000000
vt -0.191650 -0.018326 0.000000
vt -0.320900 -0.018326 0.000000
vt -0.191650 -0.028798 0.000000
vt -0.320900 -0.028798 0.000000
vt -0.320900 -0.039270 0.000000
vt -0.062400 -0.039270 0.000000
vt -0.062400 -0.028798 0.000000
vt -0.062400 -0.018326 0.000000
vt -0.062400 -0.007854 0.000000
vt -0.062400 0.002618 0.000000
vt -0.062400 0.013090 0.000000
vt -0.062400 0.023562 0.000000
vt -0.062400 0.034034 0.000000
vt -0.062400 0.044506 0.000000
vt -0.062400 0.054978 0.000000
vt -0.062400 0.065450 0.000000
vt -0.062400 0.075922 0.000000
vt -0.062400 0.086394 0.000000
vt -0.062400 0.096866 0.000000
vn 0.000000 -1.000000 0.000000
vn 0.000000 -1.000000 0.000000
vn 0.000000 -1.000000 0.000000
vn 0.000000 -1.000000 0.000000
vn -0.000000 -0.000000 -1.000000
vn -0.000000 -0.000000 -1.000000
vn -0.000000 -0.000000 -1.000000
vn -0.000000 -0.000000 -1.000000
vn 0.000000 -1.000000 0.000000
vn 0.000000 -1.000000 0.000000
vn 0.000000 -1.000000 0.000000
vn 0.000000 -1.000000 0.000000
vn -0.000000 -0.000000 -1.000000
vn -0.000000 -0.000000 -1.000000
vn -0.000000 -0.000000 -1.000000
vn -0.000000 -0.000000 -1.000000
vn 1.000000 -0.000000 -0.000000
vn 1.000000 -0.000000 -0.000000
vn 1.000000 -0.000000 -0.000000
vn 1.000000 -0.000000 -0.000000
vn 1.000000 -0.000000 -0.000000
vn 1.000000 -0.000000 -0.000000
vn 1.000000 -0.000000 -0.000000
vn 1.000000 -0.000000 -0.000000
vn 1.000000 -0.000000 -0.000000
vn 1.000000 -0.000000 -0.000000
vn 1.000000 -0.000000 -0.000000
vn 1.000000 -0.000000 -0.000000
vn 1.000000 -0.000000 -0.000000
vn 1.000000 -0.000000 -0.000000
vn 1.000000 -0.000000 -0.000000
vn 1.000000 -0.000000 -0.000000
vn 1.000000 -0.000000 -0.000000
vn 1.000000 -0.000000 -0.000000
vn 1.000000 -0.000000 -0.000000
vn 1.000000 -0.000000 -0.000000
vn 1.000000 -0.000000 -0.000000
vn 1.000000 -0.000000 -0.000000
vn 1.000000 -0.000000 -0.000000
vn 1.000000 -0.000000 -0.000000
vn 1.000000 -0.000000 -0.000000
vn 1.000000 -0.000000 -0.000000
vn 1.000000 -0.000000 -0.000000
vn 1.000000 -0.000000 -0.000000
vn 1.000000 -0.000000 -0.000000
vn 1.000000 -0.000000 -0.000000
vn 1.000000 -0.000000 -0.000000
vn 1.000000 -0.000000 -0.000000
vn 1.000000 -0.000000 -0.000000
vn 1.000000 -0.000000 -0.000000
vn 1.000000 -0.000000 -0.000000
vn 1.000000 -0.000000 -0.000000
vn 0.000000 0.000000 1.000000
vn 0.000000 0.000000 1.000000
vn 0.000000 0.000000 1.000000
vn 0.000000 0.000000 1.000000
vn -0.000000 -0.000000 -1.000000
vn -0.000000 -0.000000 -1.000000
vn -0.000000 -0.222521 -0.974928
vn -0.000000 -0.222521 -0.974928
vn -0.000000 -0.433884 -0.900969
vn -0.000000 -0.433884 -0.900969
vn -0.000000 -0.623490 -0.781831
vn -0.000000 -0.623490 -0.781831
vn -0.000000 -0.781831 -0.623490
vn -0.000000 -0.781831 -0.623490
vn -0.000000 -0.900969 -0.433884
vn -0.000000 -0.900969 -0.433884
vn -0.000000 -0.974928 -0.222521
vn -0.000000 -0.974928 -0.222521
vn 0.000000 -1.000000 0.000000
vn 0.000000 -1.000000 0.000000
vn 0.000000 -0.974928 0.222521
vn 0.000000 -0.974928 0.222521
vn 0.000000 -0.900969 0.433884
vn 0.000000 -0.900969 0.433884
vn 0.000000 -0.781831 0.623490
vn 0.000000 -0.781831 0.623490
vn 0.000000 -0.623490 0.781831
vn 0.000000 -0.623490 0.781831
vn 0.000000 -0.433884 0.900969
vn 0.000000 -0.433884 0.900969
vn 0.000000 -0.222521 0.974928
vn 0.000000 -0.222521 0.974928
vn 0.000000 -0.222521 0.974928
vn 0.000000 -0.433884 0.900969
vn 0.000000 -0.623490 0.781831
vn 0.000000 -0.781831 0.623490
vn 0.000000 -0.900969 0.433884
vn 0.000000 -0.974928 0.222521
vn 0.000000 -1.000000 0.000000
vn -0.000000 -0.974928 -0.222521
vn -0.000000 -0.900969 -0.433884
vn -0.000000 -0.781831 -0.623490
vn -0.000000 -0.623490 -0.781831
vn -0.000000 -0.433884 -0.900969
vn -0.000000 -0.222521 -0.974928
vn -1.000000 0.000000 0.000000
vn -1.000000 0.000000 0.000000
vn -1.000000 0.000000 0.000000
vn -1.000000 0.000000 0.000000
vn -1.000000 0.000000 0.000000
vn -1.000000 0.000000 0.000000
vn -1.000000 0.000000 0.000000
vn -1.000000 0.000000 0.000000
vn -1.000000 0.000000 0.000000
vn -1.000000 0.000000 0.000000
vn -1.000000 0.000000 0.000000
vn -1.000000 0.000000 0.000000
vn -1.000000 0.000000 0.000000
vn -1.000000 0.000000 0.000000
vn -1.000000 0.000000 0.000000
vn -1.000000 0.000000 0.000000
vn -1.000000 0.000000 0.000000
vn -1.000000 0.000000 0.000000
vn -1.000000 0.000000 0.000000
vn -1.000000 0.000000 0.000000
vn -1.000000 0.000000 0.000000
vn -1.000000 0.000000 0.000000
vn -1.000000 0.000000 0.000000
vn -1.000000 0.000000 0.000000
vn -1.000000 0.000000 0.000000
vn -1.000000 0.000000 0.000000
vn -1.000000 0.000000 0.000000
vn -1.000000 0.000000 0.000000
vn -1.000000 0.000000 0.000000
vn -1.000000 0.000000 0.000000
vn -1.000000 0.000000 0.000000
vn -1.000000 0.000000 0.000000
vn -1.000000 0.000000 0.000000
vn -1.000000 0.000000 0.000000
vn -1.000000 0.000000 0.000000
vn -1.000000 0.000000 0.000000
vn 0.000000 0.000000 -1.000000
vn 0.000000 0.000000 -1.000000
vn 0.000000 0.000000 -1.000000
vn 0.000000 0.000000 -1.000000
vn 0.000000 0.000000 1.000000
vn 0.000000 0.000000 1.000000
vn 0.000000 0.000000 1.000000
vn 0.000000 0.000000 1.000000
vn -0.000000 0.207912 -0.978148
vn -0.000000 0.207912 -0.978148
vn -0.000000 0.207912 -0.978148
vn -0.000000 0.406737 -0.913545
vn -0.000000 0.406737 -0.913545
vn -0.000000 0.587785 -0.809017
vn -0.000000 0.587785 -0.809017
vn -0.000000 0.743145 -0.669131
vn -0.000000 0.743145 -0.669131
vn -0.000000 0.866025 -0.500000
vn -0.000000 0.866025 -0.500000
vn -0.000000 0.951057 -0.309017
vn -0.000000 0.951057 -0.309017
vn -0.000000 0.994522 -0.104528
vn -0.000000 0.994522 -0.104528
vn 0.000000 0.994522 0.104528
vn 0.000000 0.994522 0.104528
vn 0.000000 0.951057 0.309017
vn 0.000000 0.951057 0.309017
vn 0.000000 0.866025 0.500000
vn 0.000000 0.866025 0.500000
vn 0.000000 0.743145 0.669131
vn 0.000000 0.743145 0.669131
vn 0.000000 0.587785 0.809017
vn 0.000000 0.587785 0.809017
vn 0.000000 0.406737 0.913545
vn 0.000000 0.406737 0.913545
vn 0.000000 0.207912 0.978148
vn 0.000000 0.207912 0.978148
vn 0.000000 0.207912 0.978148
vn 0.000000 0.406737 0.913545
vn 0.000000 0.587785 0.809017
vn 0.000000 0.743145 0.669131
vn 0.000000 0.866025 0.500000
vn 0.000000 0.951057 0.309017
vn 0.000000 0.994522 0.104528
vn -0.000000 0.994522 -0.104528
vn -0.000000 0.951057 -0.309017
vn -0.000000 0.866025 -0.500000
vn -0.000000 0.743145 -0.669131
vn -0.000000 0.587785 -0.809017
vn -0.000000 0.406737 -0.913545
usemtl Steel_-_Satin
f 2/1/1 3/2/2 1/3/3
f 1/3/3 3/2/2 4/4/4
f 5/5/5 6/6/6 8/7/7
f 8/7/7 6/6/6 7/8/8
f 7/9/9 9/10/10 8/11/11
f 8/11/11 9/10/10 10/12/12
f 5/13/13 11/14/14 6/15/15
f 6/15/15 11/14/14 12/16/16
f 12/17/17 42/18/18 6/19/19
f 6/19/19 42/18/18 9/20/20
f 6/19/19 9/20/20 7/21/21
f 42/18/18 12/17/17 41/22/22
f 41/22/22 12/17/17 13/23/23
f 41/22/22 13/23/23 40/24/24
f 40/24/24 13/23/23 14/25/25
f 40/24/24 14/25/25 39/26/26
f 39/26/26 14/25/25 15/27/27
f 39/26/26 15/27/27 38/28/28
f 38/28/28 15/27/27 16/29/29
f 38/28/28 16/29/29 37/30/30
f 37/30/30 16/29/29 17/31/31
f 37/30/30 17/31/31 36/32/32
f 36/32/32 17/31/31 18/33/33
f 36/32/32 18/33/33 35/34/34
f 35/34/34 18/33/33 19/35/35
f 35/34/34 19/35/35 34/36/36
f 34/36/36 19/35/35 20/37/37
f 34/36/36 20/37/37 33/38/38
f 33/38/38 20/37/37 21/39/39
f 33/38/38 21/39/39 32/40/40
f 32/40/40 21/39/39 22/41/41
f 32/40/40 22/41/41 31/42/42
f 31/42/42 22/41/41 23/43/43
f 31/42/42 23/43/43 30/44/44
f 30/44/44 23/43/43 24/45/45
f 30/44/44 24/45/45 29/46/46
f 29/46/46 24/45/45 25/47/47
f 29/46/46 25/47/47 28/48/48
f 28/48/48 25/47/47 26/49/49
f 28/48/48 26/49/49 27/50/50
f 27/50/50 26/49/49 4/51/51
f 4/51/51 26/49/49 1/52/52
f 1/53/53 26/54/54 2/55/55
f 2/55/55 26/54/54 43/56/56
f 12/57/57 11/58/58 57/59/59
f 57/59/59 11/58/58 44/60/60
f 57/59/59 44/60/60 58/61/61
f 58/61/61 44/60/60 45/62/62
f 58/61/61 45/62/62 59/63/63
f 59/63/63 45/62/62 46/64/64
f 59/63/63 46/64/64 60/65/65
f 60/65/65 46/64/64 47/66/66
f 60/65/65 47/66/66 61/67/67
f 61/67/67 47/66/66 48/68/68
f 61/67/67 48/68/68 62/69/69
f 62/69/69 48/68/68 49/70/70
f 62/69/69 49/70/70 63/71/71
f 63/71/71 49/70/70 50/72/72
f 63/71/71 50/72/72 64/73/73
f 64/73/73 50/72/72 51/74/74
f 64/73/73 51/74/74 65/75/75
f 65/75/75 51/74/74 52/76/76
f 65/75/75 52/76/76 66/77/77
f 66/77/77 52/76/76 53/78/78
f 66/77/77 53/78/78 67/79/79
f 67/79/79 53/78/78 54/80/80
f 67/79/79 54/80/80 68/81/81
f 68/81/81 54/80/80 55/82/82
f 68/81/81 55/82/82 69/83/83
f 69/83/83 55/82/82 56/84/84
f 69/83/83 56/84/84 43/85/56
f 43/85/56 26/86/54 69/83/83
f 69/83/83 26/86/54 25/87/85
f 69/83/83 25/87/85 68/81/81
f 68/81/81 25/87/85 24/88/86
f 68/81/81 24/88/86 67/79/79
f 67/79/79 24/88/86 23/89/87
f 67/79/79 23/89/87 66/77/77
f 66/77/77 23/89/87 22/90/88
f 66/77/77 22/90/88 65/75/75
f 65/75/75 22/90/88 21/91/89
f 65/75/75 21/91/89 64/73/73
f 64/73/73 21/91/89 20/92/90
f 64/73/73 20/92/90 63/71/71
f 63/71/71 20/92/90 19/93/91
f 63/71/71 19/93/91 62/69/69
f 62/69/69 19/93/91 18/94/92
f 62/69/69 18/94/92 61/67/67
f 61/67/67 18/94/92 17/95/93
f 61/67/67 17/95/93 60/65/65
f 60/65/65 17/95/93 16/96/94
f 60/65/65 16/96/94 59/63/63
f 59/63/63 16/96/94 15/97/95
f 59/63/63 15/97/95 58/61/61
f 58/61/61 15/97/95 14/98/96
f 58/61/61 14/98/96 57/59/59
f 57/59/59 14/98/96 13/99/97
f 57/59/59 13/99/97 12/57/57
f 8/100/98 10/101/99 5/102/100
f 5/102/100 10/101/99 70/103/101
f 5/102/100 70/103/101 11/104/102
f 11/104/102 70/103/101 71/105/103
f 11/104/102 71/105/103 44/106/104
f 44/106/104 71/105/103 72/107/105
f 44/106/104 72/107/105 45/108/106
f 45/108/106 72/107/105 73/109/107
f 45/108/106 73/109/107 46/110/108
f 46/110/108 73/109/107 74/111/109
f 46/110/108 74/111/109 47/112/110
f 47/112/110 74/111/109 75/113/111
f 47/112/110 75/113/111 48/114/112
f 48/114/112 75/113/111 76/115/113
f 48/114/112 76/115/113 49/116/114
f 49/116/114 76/115/113 77/117/115
f 49/116/114 77/117/115 50/118/116
f 50/118/116 77/117/115 78/119/117
f 50/118/116 78/119/117 51/120/118
f 51/120/118 78/119/117 79/121/119
f 51/120/118 79/121/119 52/122/120
f 52/122/120 79/121/119 80/123/121
f 52/122/120 80/123/121 53/124/122
f 53/124/122 80/123/121 81/125/123
f 53/124/122 81/125/123 54/126/124
f 54/126/124 81/125/123 82/127/125
f 54/126/124 82/127/125 55/128/126
f 55/128/126 82/127/125 83/129/127
f 55/128/126 83/129/127 56/130/128
f 56/130/128 83/129/127 84/131/129
f 56/130/128 84/131/129 43/132/130
f 43/132/130 84/131/129 85/133/131
f 43/132/130 85/133/131 2/134/132
f 2/134/132 85/133/131 3/135/133
f 3/136/134 85/137/135 4/138/136
f 4/138/136 85/137/135 27/139/137
f 9/140/138 42/141/139 10/142/140
f 10/142/140 42/141/139 70/143/141
f 28/144/142 27/145/137 86/146/143
f 86/146/143 27/145/137 85/147/135
f 86/146/143 85/147/135 84/148/144
f 86/146/143 84/148/144 87/149/145
f 87/149/145 84/148/144 83/150/146
f 87/149/145 83/150/146 88/151/147
f 88/151/147 83/150/146 82/152/148
f 88/151/147 82/152/148 89/153/149
f 89/153/149 82/152/148 81/154/150
f 89/153/149 81/154/150 90/155/151
f 90/155/151 81/154/150 80/156/152
f 90/155/151 80/156/152 91/157/153
f 91/157/153 80/156/152 79/158/154
f 91/157/153 79/158/154 92/159/155
f 92/159/155 79/158/154 78/160/156
f 92/159/155 78/160/156 93/161/157
f 93/161/157 78/160/156 77/162/158
f 93/161/157 77/162/158 94/163/159
f 94/163/159 77/162/158 76/164/160
f 94/163/159 76/164/160 95/165/161
f 95/165/161 76/164/160 75/166/162
f 95/165/161 75/166/162 96/167/163
f 96/167/163 75/166/162 74/168/164
f 96/167/163 74/168/164 97/169/165
f 97/169/165 74/168/164 73/170/166
f 97/169/165 73/170/166 98/171/167
f 98/171/167 73/170/166 72/172/168
f 98/171/167 72/172/168 99/173/169
f 99/173/169 72/172/168 71/174/170
f 99/173/169 71/174/170 70/175/141
f 70/175/141 42/176/139 99/173/169
f 99/173/169 42/176/139 41/177/171
f 99/173/169 41/177/171 98/171/167
f 98/171/167 41/177/171 40/178/172
f 98/171/167 40/178/172 97/169/165
f 97/169/165 40/178/172 39/179/173
f 97/169/165 39/179/173 96/167/163
f 96/167/163 39/179/173 38/180/174
f 96/167/163 38/180/174 95/165/161
f 95/165/161 38/180/174 37/181/175
f 95/165/161 37/181/175 94/163/159
f 94/163/159 37/181/175 36/182/176
f 94/163/159 36/182/176 93/161/157
f 93/161/157 36/182/176 35/183/177
f 93/161/157 35/183/177 92/159/155
f 92/159/155 35/183/177 34/184/178
f 92/159/155 34/184/178 91/157/153
f 91/157/153 34/184/178 33/185/179
f 91/157/153 33/185/179 90/155/151
f 90/155/151 33/185/179 32/186/180
f 90/155/151 32/186/180 89/153/149
f 89/153/149 32/186/180 31/187/181
f 89/153/149 31/187/181 88/151/147
f 88/151/147 31/187/181 30/188/182
f 88/151/147 30/188/182 87/149/145
f 87/149/145 30/188/182 29/189/183
f 87/149/145 29/189/183 86/146/143
f 86/146/143 29/189/183 28/144/142
# 99 vertices
# 189 texture params
# 183 normals
# 194 facets

# 1 groups
