# WaveFront *.obj file (generated by Autodesk ATF)

mtllib glass.mtl

g Glass

v 0.401153 0.078100 -0.825000
v 0.401153 0.078100 -0.209778
v 0.401153 0.075100 -0.209778
v 0.401153 0.075100 -0.825000
v 0.386153 0.078100 -0.840000
v 0.390035 0.078100 -0.839489
v 0.393653 0.078100 -0.837990
v 0.396759 0.078100 -0.835607
v 0.399143 0.078100 -0.832500
v 0.400642 0.078100 -0.828882
v 0.400642 0.075100 -0.828882
v 0.399143 0.075100 -0.832500
v 0.396759 0.075100 -0.835607
v 0.393653 0.075100 -0.837990
v 0.390035 0.075100 -0.839489
v 0.386153 0.075100 -0.840000
v -0.373263 0.078100 -0.840000
v -0.373263 0.075100 -0.840000
v -0.388263 0.078100 -0.825000
v -0.387752 0.078100 -0.828882
v -0.386254 0.078100 -0.832500
v -0.383870 0.078100 -0.835607
v -0.380763 0.078100 -0.837990
v -0.377146 0.078100 -0.839489
v -0.377146 0.075100 -0.839489
v -0.380763 0.075100 -0.837990
v -0.383870 0.075100 -0.835607
v -0.386254 0.075100 -0.832500
v -0.387752 0.075100 -0.828882
v -0.388263 0.075100 -0.825000
v -0.388263 0.078100 -0.209778
v -0.388263 0.075100 -0.209778
v -0.373263 0.078100 -0.194778
v -0.377146 0.078100 -0.195289
v -0.380763 0.078100 -0.196788
v -0.383870 0.078100 -0.199171
v -0.386254 0.078100 -0.202278
v -0.387752 0.078100 -0.205896
v -0.387752 0.075100 -0.205896
v -0.386254 0.075100 -0.202278
v -0.383870 0.075100 -0.199171
v -0.380763 0.075100 -0.196788
v -0.377146 0.075100 -0.195289
v -0.373263 0.075100 -0.194778
v 0.386153 0.078100 -0.194778
v 0.386153 0.075100 -0.194778
v 0.400642 0.078100 -0.205896
v 0.399143 0.078100 -0.202278
v 0.396759 0.078100 -0.199171
v 0.393653 0.078100 -0.196788
v 0.390035 0.078100 -0.195289
v 0.390035 0.075100 -0.195289
v 0.393653 0.075100 -0.196788
v 0.396759 0.075100 -0.199171
v 0.399143 0.075100 -0.202278
v 0.400642 0.075100 -0.205896
vt 0.000000 0.000000 0.000000
vt 0.615222 0.000000 0.000000
vt -0.000000 0.003000 0.000000
vt 0.615222 0.003000 0.000000
vt -0.003000 0.000000 0.000000
vt -0.000000 0.000000 0.000000
vt -0.003000 0.003927 0.000000
vt -0.000000 0.003927 0.000000
vt -0.003000 0.007854 0.000000
vt -0.000000 0.007854 0.000000
vt -0.003000 0.011781 0.000000
vt -0.000000 0.011781 0.000000
vt -0.003000 0.015708 0.000000
vt -0.000000 0.015708 0.000000
vt -0.003000 0.019635 0.000000
vt -0.000000 0.019635 0.000000
vt -0.003000 0.023562 0.000000
vt -0.000000 0.023562 0.000000
vt 0.000000 -0.000000 0.000000
vt 0.759416 -0.000000 0.000000
vt 0.000000 0.003000 0.000000
vt 0.759416 0.003000 0.000000
vt -0.003000 0.000000 0.000000
vt 0.000000 0.000000 0.000000
vt -0.003000 0.003927 0.000000
vt -0.000000 0.003927 0.000000
vt -0.003000 0.007854 0.000000
vt 0.000000 0.007854 0.000000
vt -0.003000 0.011781 0.000000
vt -0.000000 0.011781 0.000000
vt -0.003000 0.015708 0.000000
vt -0.000000 0.015708 0.000000
vt -0.003000 0.019635 0.000000
vt 0.000000 0.019635 0.000000
vt -0.003000 0.023562 0.000000
vt -0.000000 0.023562 0.000000
vt 0.000000 -0.000000 0.000000
vt 0.615222 0.000000 0.000000
vt -0.000000 0.003000 0.000000
vt 0.615222 0.003000 0.000000
vt -0.003000 0.000000 0.000000
vt -0.000000 0.000000 0.000000
vt -0.003000 0.003927 0.000000
vt -0.000000 0.003927 0.000000
vt -0.003000 0.007854 0.000000
vt -0.000000 0.007854 0.000000
vt -0.003000 0.011781 0.000000
vt -0.000000 0.011781 0.000000
vt -0.003000 0.015708 0.000000
vt -0.000000 0.015708 0.000000
vt -0.003000 0.019635 0.000000
vt -0.000000 0.019635 0.000000
vt -0.003000 0.023562 0.000000
vt -0.000000 0.023562 0.000000
vt 0.000000 0.000000 0.000000
vt 0.759416 0.000000 0.000000
vt 0.000000 0.003000 0.000000
vt 0.759416 0.003000 0.000000
vt -0.003000 0.000000 0.000000
vt -0.000000 0.000000 0.000000
vt -0.003000 0.003927 0.000000
vt -0.000000 0.003927 0.000000
vt -0.003000 0.007854 0.000000
vt -0.000000 0.007854 0.000000
vt -0.003000 0.011781 0.000000
vt -0.000000 0.011781 0.000000
vt -0.003000 0.015708 0.000000
vt -0.000000 0.015708 0.000000
vt -0.003000 0.019635 0.000000
vt -0.000000 0.019635 0.000000
vt -0.003000 0.023562 0.000000
vt -0.000000 0.023562 0.000000
vt 0.394197 0.311493 0.000000
vt 0.379708 0.322611 0.000000
vt 0.394708 0.307611 0.000000
vt -0.379708 0.322611 0.000000
vt -0.394708 0.307611 0.000000
vt -0.394197 0.311493 0.000000
vt -0.392699 0.315111 0.000000
vt -0.390315 0.318218 0.000000
vt -0.387208 0.320601 0.000000
vt -0.383590 0.322100 0.000000
vt 0.392699 0.315111 0.000000
vt 0.390315 0.318218 0.000000
vt 0.387208 0.320601 0.000000
vt 0.383590 0.322100 0.000000
vt 0.394708 -0.307611 0.000000
vt -0.394708 -0.307611 0.000000
vt 0.379708 -0.322611 0.000000
vt -0.379708 -0.322611 0.000000
vt -0.394197 -0.311493 0.000000
vt -0.392699 -0.315111 0.000000
vt -0.390315 -0.318218 0.000000
vt -0.387208 -0.320601 0.000000
vt -0.383590 -0.322100 0.000000
vt 0.383590 -0.322100 0.000000
vt 0.387208 -0.320601 0.000000
vt 0.390315 -0.318218 0.000000
vt 0.392699 -0.315111 0.000000
vt 0.394197 -0.311493 0.000000
vt -0.383590 0.322100 0.000000
vt -0.387208 0.320601 0.000000
vt -0.379708 0.322611 0.000000
vt -0.390315 0.318218 0.000000
vt -0.392699 0.315111 0.000000
vt -0.394197 0.311493 0.000000
vt -0.394708 0.307611 0.000000
vt 0.394708 0.307611 0.000000
vt 0.394708 -0.307611 0.000000
vt -0.394708 -0.307611 0.000000
vt 0.379708 -0.322611 0.000000
vt -0.379708 -0.322611 0.000000
vt -0.394197 -0.311493 0.000000
vt -0.392699 -0.315111 0.000000
vt -0.390315 -0.318218 0.000000
vt -0.387208 -0.320601 0.000000
vt -0.383590 -0.322100 0.000000
vt 0.383590 -0.322100 0.000000
vt 0.387208 -0.320601 0.000000
vt 0.390315 -0.318218 0.000000
vt 0.392699 -0.315111 0.000000
vt 0.394197 -0.311493 0.000000
vt 0.379708 0.322611 0.000000
vt 0.394197 0.311493 0.000000
vt 0.392699 0.315111 0.000000
vt 0.390315 0.318218 0.000000
vt 0.387208 0.320601 0.000000
vt 0.383590 0.322100 0.000000
vn 1.000000 0.000000 0.000000
vn 1.000000 0.000000 0.000000
vn 1.000000 0.000000 0.000000
vn 1.000000 0.000000 0.000000
vn 0.000000 -0.000000 -1.000000
vn 0.000000 -0.000000 -1.000000
vn 0.258819 -0.000000 -0.965926
vn 0.258819 -0.000000 -0.965926
vn 0.500000 -0.000000 -0.866025
vn 0.500000 -0.000000 -0.866025
vn 0.707107 -0.000000 -0.707107
vn 0.707107 -0.000000 -0.707107
vn 0.866025 -0.000000 -0.500000
vn 0.866025 -0.000000 -0.500000
vn 0.965926 -0.000000 -0.258819
vn 0.965926 -0.000000 -0.258819
vn 0.000000 0.000000 -1.000000
vn 0.000000 0.000000 -1.000000
vn -1.000000 -0.000000 -0.000000
vn -1.000000 -0.000000 -0.000000
vn -0.965926 -0.000000 -0.258819
vn -0.965926 -0.000000 -0.258819
vn -0.866025 -0.000000 -0.500000
vn -0.866025 -0.000000 -0.500000
vn -0.707107 -0.000000 -0.707107
vn -0.707107 -0.000000 -0.707107
vn -0.500000 -0.000000 -0.866025
vn -0.500000 -0.000000 -0.866025
vn -0.258819 -0.000000 -0.965926
vn -0.258819 -0.000000 -0.965926
vn -1.000000 0.000000 0.000000
vn -1.000000 0.000000 0.000000
vn -0.000000 -0.000000 1.000000
vn -0.000000 -0.000000 1.000000
vn -0.258819 -0.000000 0.965926
vn -0.258819 -0.000000 0.965926
vn -0.500000 -0.000000 0.866025
vn -0.500000 -0.000000 0.866025
vn -0.707107 -0.000000 0.707107
vn -0.707107 -0.000000 0.707107
vn -0.866025 -0.000000 0.500000
vn -0.866025 -0.000000 0.500000
vn -0.965926 -0.000000 0.258819
vn -0.965926 -0.000000 0.258819
vn 0.000000 0.000000 1.000000
vn 0.000000 0.000000 1.000000
vn 0.965926 0.000000 0.258819
vn 0.965926 0.000000 0.258819
vn 0.866025 0.000000 0.500000
vn 0.866025 0.000000 0.500000
vn 0.707107 0.000000 0.707107
vn 0.707107 0.000000 0.707107
vn 0.500000 0.000000 0.866025
vn 0.500000 0.000000 0.866025
vn 0.258819 0.000000 0.965926
vn 0.258819 0.000000 0.965926
vn -0.000000 -1.000000 0.000000
vn -0.000000 -1.000000 0.000000
vn -0.000000 -1.000000 0.000000
vn -0.000000 -1.000000 0.000000
vn -0.000000 -1.000000 0.000000
vn -0.000000 -1.000000 0.000000
vn -0.000000 -1.000000 0.000000
vn -0.000000 -1.000000 0.000000
vn -0.000000 -1.000000 0.000000
vn -0.000000 -1.000000 0.000000
vn -0.000000 -1.000000 0.000000
vn -0.000000 -1.000000 0.000000
vn -0.000000 -1.000000 0.000000
vn -0.000000 -1.000000 0.000000
vn -0.000000 -1.000000 0.000000
vn -0.000000 -1.000000 0.000000
vn -0.000000 -1.000000 0.000000
vn -0.000000 -1.000000 0.000000
vn -0.000000 -1.000000 0.000000
vn -0.000000 -1.000000 0.000000
vn -0.000000 -1.000000 0.000000
vn -0.000000 -1.000000 0.000000
vn -0.000000 -1.000000 0.000000
vn -0.000000 -1.000000 0.000000
vn -0.000000 -1.000000 0.000000
vn -0.000000 -1.000000 0.000000
vn -0.000000 -1.000000 0.000000
vn -0.000000 -1.000000 0.000000
vn 0.000000 1.000000 -0.000000
vn 0.000000 1.000000 -0.000000
vn 0.000000 1.000000 -0.000000
vn 0.000000 1.000000 -0.000000
vn 0.000000 1.000000 -0.000000
vn 0.000000 1.000000 -0.000000
vn 0.000000 1.000000 -0.000000
vn 0.000000 1.000000 -0.000000
vn 0.000000 1.000000 -0.000000
vn 0.000000 1.000000 -0.000000
vn 0.000000 1.000000 -0.000000
vn 0.000000 1.000000 -0.000000
vn 0.000000 1.000000 -0.000000
vn 0.000000 1.000000 -0.000000
vn 0.000000 1.000000 -0.000000
vn 0.000000 1.000000 -0.000000
vn 0.000000 1.000000 -0.000000
vn 0.000000 1.000000 -0.000000
vn 0.000000 1.000000 -0.000000
vn 0.000000 1.000000 -0.000000
vn 0.000000 1.000000 -0.000000
vn 0.000000 1.000000 -0.000000
vn 0.000000 1.000000 -0.000000
vn 0.000000 1.000000 -0.000000
vn 0.000000 1.000000 -0.000000
vn 0.000000 1.000000 -0.000000
vn 0.000000 1.000000 -0.000000
vn 0.000000 1.000000 -0.000000
usemtl Steel_-_Satin
f 1/1/1 2/2/2 4/3/3
f 4/3/3 2/2/2 3/4/4
f 16/5/5 5/6/6 15/7/7
f 15/7/7 5/6/6 6/8/8
f 15/7/7 6/8/8 14/9/9
f 14/9/9 6/8/8 7/10/10
f 14/9/9 7/10/10 13/11/11
f 13/11/11 7/10/10 8/12/12
f 13/11/11 8/12/12 12/13/13
f 12/13/13 8/12/12 9/14/14
f 12/13/13 9/14/14 11/15/15
f 11/15/15 9/14/14 10/16/16
f 11/15/15 10/16/16 4/17/3
f 4/17/3 10/16/16 1/18/1
f 17/19/17 5/20/6 18/21/18
f 18/21/18 5/20/6 16/22/5
f 30/23/19 19/24/20 29/25/21
f 29/25/21 19/24/20 20/26/22
f 29/25/21 20/26/22 28/27/23
f 28/27/23 20/26/22 21/28/24
f 28/27/23 21/28/24 27/29/25
f 27/29/25 21/28/24 22/30/26
f 27/29/25 22/30/26 26/31/27
f 26/31/27 22/30/26 23/32/28
f 26/31/27 23/32/28 25/33/29
f 25/33/29 23/32/28 24/34/30
f 25/33/29 24/34/30 18/35/18
f 18/35/18 24/34/30 17/36/17
f 31/37/31 19/38/20 32/39/32
f 32/39/32 19/38/20 30/40/19
f 44/41/33 33/42/34 43/43/35
f 43/43/35 33/42/34 34/44/36
f 43/43/35 34/44/36 42/45/37
f 42/45/37 34/44/36 35/46/38
f 42/45/37 35/46/38 41/47/39
f 41/47/39 35/46/38 36/48/40
f 41/47/39 36/48/40 40/49/41
f 40/49/41 36/48/40 37/50/42
f 40/49/41 37/50/42 39/51/43
f 39/51/43 37/50/42 38/52/44
f 39/51/43 38/52/44 32/53/32
f 32/53/32 38/52/44 31/54/31
f 45/55/45 33/56/34 46/57/46
f 46/57/46 33/56/34 44/58/33
f 3/59/4 2/60/2 56/61/47
f 56/61/47 2/60/2 47/62/48
f 56/61/47 47/62/48 55/63/49
f 55/63/49 47/62/48 48/64/50
f 55/63/49 48/64/50 54/65/51
f 54/65/51 48/64/50 49/66/52
f 54/65/51 49/66/52 53/67/53
f 53/67/53 49/66/52 50/68/54
f 53/67/53 50/68/54 52/69/55
f 52/69/55 50/68/54 51/70/56
f 52/69/55 51/70/56 46/71/46
f 46/71/46 51/70/56 45/72/45
f 56/73/57 46/74/58 3/75/59
f 3/75/59 46/74/58 44/76/60
f 3/75/59 44/76/60 32/77/61
f 32/77/61 44/76/60 39/78/62
f 39/78/62 44/76/60 40/79/63
f 40/79/63 44/76/60 41/80/64
f 41/80/64 44/76/60 42/81/65
f 42/81/65 44/76/60 43/82/66
f 56/73/57 55/83/67 46/74/58
f 46/74/58 55/83/67 54/84/68
f 46/74/58 54/84/68 53/85/69
f 53/85/69 52/86/70 46/74/58
f 3/75/59 32/77/61 4/87/71
f 4/87/71 32/77/61 30/88/72
f 4/87/71 30/88/72 16/89/73
f 16/89/73 30/88/72 18/90/74
f 18/90/74 30/88/72 29/91/75
f 18/90/74 29/91/75 28/92/76
f 28/92/76 27/93/77 18/90/74
f 18/90/74 27/93/77 26/94/78
f 18/90/74 26/94/78 25/95/79
f 15/96/80 14/97/81 16/89/73
f 16/89/73 14/97/81 13/98/82
f 16/89/73 13/98/82 12/99/83
f 12/99/83 11/100/84 16/89/73
f 16/89/73 11/100/84 4/87/71
f 51/101/85 50/102/86 45/103/87
f 45/103/87 50/102/86 49/104/88
f 45/103/87 49/104/88 48/105/89
f 48/105/89 47/106/90 45/103/87
f 45/103/87 47/106/90 2/107/91
f 45/103/87 2/107/91 31/108/92
f 31/108/92 2/107/91 19/109/93
f 19/109/93 2/107/91 1/110/94
f 19/109/93 1/110/94 17/111/95
f 17/111/95 1/110/94 5/112/96
f 5/112/96 1/110/94 10/113/97
f 5/112/96 10/113/97 9/114/98
f 9/114/98 8/115/99 5/112/96
f 5/112/96 8/115/99 7/116/100
f 5/112/96 7/116/100 6/117/101
f 24/118/102 23/119/103 17/111/95
f 17/111/95 23/119/103 22/120/104
f 17/111/95 22/120/104 21/121/105
f 21/121/105 20/122/106 17/111/95
f 17/111/95 20/122/106 19/109/93
f 45/103/87 31/108/92 33/123/107
f 33/123/107 31/108/92 38/124/108
f 33/123/107 38/124/108 37/125/109
f 37/125/109 36/126/110 33/123/107
f 33/123/107 36/126/110 35/127/111
f 33/123/107 35/127/111 34/128/112
# 56 vertices
# 128 texture params
# 112 normals
# 108 facets

# 1 groups
