# WaveFront *.obj file (generated by Autodesk ATF)

mtllib t screen.mtl

g T screen (1)

v -0.430638 0.103100 -0.830636
v 0.443524 0.103100 -0.830636
v 0.443524 0.075100 -0.830636
v -0.430638 0.075100 -0.830636
v 0.443524 0.103100 -0.179364
v 0.443524 0.075100 -0.179364
v -0.430638 0.103100 -0.179364
v -0.430638 0.075100 -0.179364
v -0.360002 0.073100 -0.790000
v -0.359661 0.073100 -0.792588
v -0.358662 0.073100 -0.795000
v -0.357073 0.073100 -0.797071
v -0.355002 0.073100 -0.798660
v -0.352590 0.073100 -0.799659
v -0.350002 0.073100 -0.800000
v 0.362887 0.073100 -0.800000
v 0.365475 0.073100 -0.799659
v 0.367887 0.073100 -0.798660
v 0.369958 0.073100 -0.797071
v 0.371548 0.073100 -0.795000
v 0.372547 0.073100 -0.792588
v 0.372887 0.073100 -0.790000
v 0.372887 0.073100 -0.260000
v 0.372547 0.073100 -0.257412
v 0.371548 0.073100 -0.255000
v 0.369958 0.073100 -0.252929
v 0.367887 0.073100 -0.251340
v 0.365475 0.073100 -0.250341
v 0.362887 0.073100 -0.250000
v -0.350002 0.073100 -0.250000
v -0.352590 0.073100 -0.250341
v -0.355002 0.073100 -0.251340
v -0.357073 0.073100 -0.252929
v -0.358662 0.073100 -0.255000
v -0.359661 0.073100 -0.257412
v -0.360002 0.073100 -0.260000
v 0.372887 0.075100 -0.790000
v 0.372887 0.075100 -0.260000
v 0.362887 0.075100 -0.800000
v 0.365475 0.075100 -0.799659
v 0.367887 0.075100 -0.798660
v 0.369958 0.075100 -0.797071
v 0.371548 0.075100 -0.795000
v 0.372547 0.075100 -0.792588
v -0.350002 0.075100 -0.800000
v -0.360002 0.075100 -0.790000
v -0.359661 0.075100 -0.792588
v -0.358662 0.075100 -0.795000
v -0.357073 0.075100 -0.797071
v -0.355002 0.075100 -0.798660
v -0.352590 0.075100 -0.799659
v -0.360002 0.075100 -0.260000
v -0.350002 0.075100 -0.250000
v -0.352590 0.075100 -0.250341
v -0.355002 0.075100 -0.251340
v -0.357073 0.075100 -0.252929
v -0.358662 0.075100 -0.255000
v -0.359661 0.075100 -0.257412
v 0.362887 0.075100 -0.250000
v 0.372547 0.075100 -0.257412
v 0.371548 0.075100 -0.255000
v 0.369958 0.075100 -0.252929
v 0.367887 0.075100 -0.251340
v 0.365475 0.075100 -0.250341
vt 0.874162 0.028000 0.000000
vt -0.000000 0.028000 0.000000
vt 0.874162 -0.000000 0.000000
vt -0.000000 0.000000 0.000000
vt 0.651273 0.028000 0.000000
vt 0.000000 0.028000 0.000000
vt 0.651273 -0.000000 0.000000
vt 0.000000 0.000000 0.000000
vt 0.372442 0.365132 0.000000
vt -0.278831 0.365132 0.000000
vt 0.372442 -0.509031 0.000000
vt -0.278831 -0.509031 0.000000
vt 0.040000 0.000000 0.000000
vt 0.691273 0.000000 0.000000
vt 0.040000 0.028000 0.000000
vt 0.691273 0.028000 0.000000
vt -0.366104 -0.267588 0.000000
vt -0.356445 -0.275000 0.000000
vt -0.366445 -0.265000 0.000000
vt 0.356445 -0.275000 0.000000
vt 0.366445 -0.265000 0.000000
vt 0.366104 -0.267588 0.000000
vt 0.365105 -0.270000 0.000000
vt 0.363516 -0.272071 0.000000
vt 0.361445 -0.273660 0.000000
vt 0.359033 -0.274659 0.000000
vt -0.365105 -0.270000 0.000000
vt -0.363516 -0.272071 0.000000
vt -0.361445 -0.273660 0.000000
vt -0.359033 -0.274659 0.000000
vt -0.366445 0.265000 0.000000
vt 0.366445 0.265000 0.000000
vt -0.356445 0.275000 0.000000
vt 0.356445 0.275000 0.000000
vt 0.366104 0.267588 0.000000
vt 0.365105 0.270000 0.000000
vt 0.363516 0.272071 0.000000
vt 0.361445 0.273660 0.000000
vt 0.359033 0.274659 0.000000
vt -0.359033 0.274659 0.000000
vt -0.361445 0.273660 0.000000
vt -0.363516 0.272071 0.000000
vt -0.365105 0.270000 0.000000
vt -0.366104 0.267588 0.000000
vt 0.530000 0.002000 0.000000
vt -0.000000 0.002000 0.000000
vt 0.530000 0.000000 0.000000
vt 0.000000 0.000000 0.000000
vt -0.002000 0.000000 0.000000
vt -0.000000 -0.002618 0.000000
vt -0.002000 -0.002618 0.000000
vt -0.000000 -0.005236 0.000000
vt -0.002000 -0.005236 0.000000
vt -0.000000 -0.007854 0.000000
vt -0.002000 -0.007854 0.000000
vt -0.000000 -0.010472 0.000000
vt -0.002000 -0.010472 0.000000
vt -0.000000 -0.013090 0.000000
vt -0.002000 -0.013090 0.000000
vt -0.000000 -0.015708 0.000000
vt -0.002000 -0.015708 0.000000
vt 0.712889 0.002000 0.000000
vt -0.000000 0.002000 0.000000
vt 0.712889 -0.000000 0.000000
vt 0.000000 0.000000 0.000000
vt -0.002000 -0.000000 0.000000
vt 0.000000 -0.002618 0.000000
vt -0.002000 -0.002618 0.000000
vt 0.000000 -0.005236 0.000000
vt -0.002000 -0.005236 0.000000
vt 0.000000 -0.007854 0.000000
vt -0.002000 -0.007854 0.000000
vt 0.000000 -0.010472 0.000000
vt -0.002000 -0.010472 0.000000
vt 0.000000 -0.013090 0.000000
vt -0.002000 -0.013090 0.000000
vt -0.000000 -0.015708 0.000000
vt -0.002000 -0.015708 0.000000
vt 0.530000 0.002000 0.000000
vt 0.000000 0.002000 0.000000
vt 0.530000 -0.000000 0.000000
vt 0.000000 0.000000 0.000000
vt -0.002000 0.000000 0.000000
vt 0.000000 -0.002618 0.000000
vt -0.002000 -0.002618 0.000000
vt 0.000000 -0.005236 0.000000
vt -0.002000 -0.005236 0.000000
vt 0.000000 -0.007854 0.000000
vt -0.002000 -0.007854 0.000000
vt 0.000000 -0.010472 0.000000
vt -0.002000 -0.010472 0.000000
vt 0.000000 -0.013090 0.000000
vt -0.002000 -0.013090 0.000000
vt -0.000000 -0.015708 0.000000
vt -0.002000 -0.015708 0.000000
vt 0.712889 0.002000 0.000000
vt 0.000000 0.002000 0.000000
vt 0.712889 0.000000 0.000000
vt 0.000000 0.000000 0.000000
vt -0.002000 0.000000 0.000000
vt -0.000000 -0.002618 0.000000
vt -0.002000 -0.002618 0.000000
vt -0.000000 -0.005236 0.000000
vt -0.002000 -0.005236 0.000000
vt -0.000000 -0.007854 0.000000
vt -0.002000 -0.007854 0.000000
vt -0.000000 -0.010472 0.000000
vt -0.002000 -0.010472 0.000000
vt -0.000000 -0.013090 0.000000
vt -0.002000 -0.013090 0.000000
vt -0.000000 -0.015708 0.000000
vt -0.002000 -0.015708 0.000000
vt 0.874162 0.028000 0.000000
vt 0.000000 0.028000 0.000000
vt 0.874162 0.000000 0.000000
vt 0.000000 0.000000 0.000000
vt -0.372442 -0.509031 0.000000
vt -0.341806 0.284495 0.000000
vt -0.372442 0.365132 0.000000
vt -0.341465 0.287083 0.000000
vt -0.340466 0.289495 0.000000
vt 0.278831 -0.509031 0.000000
vt 0.198194 -0.438394 0.000000
vt -0.331806 -0.438394 0.000000
vt -0.334394 -0.438053 0.000000
vt 0.278831 0.365132 0.000000
vt 0.208194 0.284495 0.000000
vt 0.208194 -0.428394 0.000000
vt 0.207854 -0.430982 0.000000
vt 0.198194 0.294495 0.000000
vt 0.200782 0.294154 0.000000
vt 0.203194 0.293155 0.000000
vt 0.206855 -0.433394 0.000000
vt 0.205265 -0.435465 0.000000
vt 0.203194 -0.437054 0.000000
vt 0.200782 -0.438053 0.000000
vt -0.336806 -0.437054 0.000000
vt -0.338877 -0.435465 0.000000
vt -0.340466 -0.433394 0.000000
vt -0.341465 -0.430982 0.000000
vt -0.341806 -0.428394 0.000000
vt -0.338877 0.291566 0.000000
vt -0.336806 0.293155 0.000000
vt -0.334394 0.294154 0.000000
vt -0.331806 0.294495 0.000000
vt 0.205265 0.291566 0.000000
vt 0.206855 0.289495 0.000000
vt 0.207854 0.287083 0.000000
vn -0.000000 -0.000000 -1.000000
vn -0.000000 -0.000000 -1.000000
vn -0.000000 -0.000000 -1.000000
vn -0.000000 -0.000000 -1.000000
vn 1.000000 0.000000 0.000000
vn 1.000000 0.000000 0.000000
vn 1.000000 0.000000 0.000000
vn 1.000000 0.000000 0.000000
vn -0.000000 1.000000 -0.000000
vn -0.000000 1.000000 -0.000000
vn -0.000000 1.000000 -0.000000
vn -0.000000 1.000000 -0.000000
vn -1.000000 -0.000000 0.000000
vn -1.000000 -0.000000 0.000000
vn -1.000000 -0.000000 0.000000
vn -1.000000 -0.000000 0.000000
vn 0.000000 -1.000000 -0.000000
vn 0.000000 -1.000000 -0.000000
vn 0.000000 -1.000000 -0.000000
vn 0.000000 -1.000000 -0.000000
vn 0.000000 -1.000000 -0.000000
vn 0.000000 -1.000000 -0.000000
vn 0.000000 -1.000000 -0.000000
vn 0.000000 -1.000000 -0.000000
vn 0.000000 -1.000000 -0.000000
vn 0.000000 -1.000000 -0.000000
vn 0.000000 -1.000000 -0.000000
vn 0.000000 -1.000000 -0.000000
vn 0.000000 -1.000000 -0.000000
vn 0.000000 -1.000000 -0.000000
vn 0.000000 -1.000000 -0.000000
vn 0.000000 -1.000000 -0.000000
vn 0.000000 -1.000000 -0.000000
vn 0.000000 -1.000000 -0.000000
vn 0.000000 -1.000000 -0.000000
vn 0.000000 -1.000000 -0.000000
vn 0.000000 -1.000000 -0.000000
vn 0.000000 -1.000000 -0.000000
vn 0.000000 -1.000000 -0.000000
vn 0.000000 -1.000000 -0.000000
vn 0.000000 -1.000000 -0.000000
vn 0.000000 -1.000000 -0.000000
vn 0.000000 -1.000000 -0.000000
vn 0.000000 -1.000000 -0.000000
vn 1.000000 0.000000 0.000000
vn 1.000000 0.000000 0.000000
vn 1.000000 0.000000 0.000000
vn 1.000000 0.000000 0.000000
vn 0.965926 0.000000 -0.258819
vn 0.965926 0.000000 -0.258819
vn 0.866025 0.000000 -0.500000
vn 0.866025 0.000000 -0.500000
vn 0.707107 0.000000 -0.707107
vn 0.707107 0.000000 -0.707107
vn 0.500000 0.000000 -0.866025
vn 0.500000 0.000000 -0.866025
vn 0.258819 0.000000 -0.965926
vn 0.258819 0.000000 -0.965926
vn 0.000000 0.000000 -1.000000
vn 0.000000 0.000000 -1.000000
vn 0.000000 0.000000 -1.000000
vn 0.000000 0.000000 -1.000000
vn -0.258819 -0.000000 -0.965926
vn -0.258819 -0.000000 -0.965926
vn -0.500000 -0.000000 -0.866025
vn -0.500000 -0.000000 -0.866025
vn -0.707107 -0.000000 -0.707107
vn -0.707107 -0.000000 -0.707107
vn -0.866025 -0.000000 -0.500000
vn -0.866025 -0.000000 -0.500000
vn -0.965926 -0.000000 -0.258819
vn -0.965926 -0.000000 -0.258819
vn -1.000000 -0.000000 -0.000000
vn -1.000000 -0.000000 -0.000000
vn -1.000000 -0.000000 0.000000
vn -1.000000 -0.000000 0.000000
vn -0.965926 -0.000000 0.258819
vn -0.965926 -0.000000 0.258819
vn -0.866025 -0.000000 0.500000
vn -0.866025 -0.000000 0.500000
vn -0.707107 -0.000000 0.707107
vn -0.707107 -0.000000 0.707107
vn -0.500000 -0.000000 0.866025
vn -0.500000 -0.000000 0.866025
vn -0.258819 -0.000000 0.965926
vn -0.258819 -0.000000 0.965926
vn -0.000000 -0.000000 1.000000
vn -0.000000 -0.000000 1.000000
vn 0.000000 0.000000 1.000000
vn 0.000000 0.000000 1.000000
vn 0.258819 0.000000 0.965926
vn 0.258819 0.000000 0.965926
vn 0.500000 0.000000 0.866025
vn 0.500000 0.000000 0.866025
vn 0.707107 0.000000 0.707107
vn 0.707107 0.000000 0.707107
vn 0.866025 0.000000 0.500000
vn 0.866025 0.000000 0.500000
vn 0.965926 0.000000 0.258819
vn 0.965926 0.000000 0.258819
vn 0.000000 0.000000 1.000000
vn 0.000000 0.000000 1.000000
vn 0.000000 0.000000 1.000000
vn 0.000000 0.000000 1.000000
vn 0.000000 -1.000000 -0.000000
vn 0.000000 -1.000000 -0.000000
vn 0.000000 -1.000000 -0.000000
vn 0.000000 -1.000000 -0.000000
vn 0.000000 -1.000000 -0.000000
vn 0.000000 -1.000000 -0.000000
vn 0.000000 -1.000000 -0.000000
vn 0.000000 -1.000000 -0.000000
vn 0.000000 -1.000000 -0.000000
vn 0.000000 -1.000000 -0.000000
vn 0.000000 -1.000000 -0.000000
vn 0.000000 -1.000000 -0.000000
vn 0.000000 -1.000000 -0.000000
vn 0.000000 -1.000000 -0.000000
vn 0.000000 -1.000000 -0.000000
vn 0.000000 -1.000000 -0.000000
vn 0.000000 -1.000000 -0.000000
vn 0.000000 -1.000000 -0.000000
vn 0.000000 -1.000000 -0.000000
vn 0.000000 -1.000000 -0.000000
vn 0.000000 -1.000000 -0.000000
vn 0.000000 -1.000000 -0.000000
vn 0.000000 -1.000000 -0.000000
vn 0.000000 -1.000000 -0.000000
vn 0.000000 -1.000000 -0.000000
vn 0.000000 -1.000000 -0.000000
vn 0.000000 -1.000000 -0.000000
vn 0.000000 -1.000000 -0.000000
vn 0.000000 -1.000000 -0.000000
vn 0.000000 -1.000000 -0.000000
vn 0.000000 -1.000000 -0.000000
vn 0.000000 -1.000000 -0.000000
usemtl Steel_-_Satin
f 1/1/1 2/2/2 4/3/3
f 4/3/3 2/2/2 3/4/4
f 2/5/5 5/6/6 3/7/7
f 3/7/7 5/6/6 6/8/8
f 1/9/9 7/10/10 2/11/11
f 2/11/11 7/10/10 5/12/12
f 4/13/13 8/14/14 1/15/15
f 1/15/15 8/14/14 7/16/16
f 10/17/17 15/18/18 9/19/19
f 9/19/19 15/18/18 16/20/20
f 9/19/19 16/20/20 22/21/21
f 22/21/21 16/20/20 21/22/22
f 21/22/22 16/20/20 20/23/23
f 20/23/23 16/20/20 19/24/24
f 19/24/24 16/20/20 18/25/25
f 18/25/25 16/20/20 17/26/26
f 10/17/17 11/27/27 15/18/18
f 15/18/18 11/27/27 12/28/28
f 15/18/18 12/28/28 13/29/29
f 13/29/29 14/30/30 15/18/18
f 9/19/19 22/21/21 36/31/31
f 36/31/31 22/21/21 23/32/32
f 36/31/31 23/32/32 30/33/33
f 30/33/33 23/32/32 29/34/34
f 29/34/34 23/32/32 24/35/35
f 29/34/34 24/35/35 25/36/36
f 25/36/36 26/37/37 29/34/34
f 29/34/34 26/37/37 27/38/38
f 29/34/34 27/38/38 28/39/39
f 31/40/40 32/41/41 30/33/33
f 30/33/33 32/41/41 33/42/42
f 30/33/33 33/42/42 34/43/43
f 34/43/43 35/44/44 30/33/33
f 30/33/33 35/44/44 36/31/31
f 23/45/45 22/46/46 38/47/47
f 38/47/47 22/46/46 37/48/48
f 37/48/48 22/49/46 44/50/49
f 44/50/49 22/49/46 21/51/50
f 44/50/49 21/51/50 43/52/51
f 43/52/51 21/51/50 20/53/52
f 43/52/51 20/53/52 42/54/53
f 42/54/53 20/53/52 19/55/54
f 42/54/53 19/55/54 41/56/55
f 41/56/55 19/55/54 18/57/56
f 41/56/55 18/57/56 40/58/57
f 40/58/57 18/57/56 17/59/58
f 40/58/57 17/59/58 39/60/59
f 39/60/59 17/59/58 16/61/60
f 16/62/60 15/63/61 39/64/59
f 39/64/59 15/63/61 45/65/62
f 45/65/62 15/66/61 51/67/63
f 51/67/63 15/66/61 14/68/64
f 51/67/63 14/68/64 50/69/65
f 50/69/65 14/68/64 13/70/66
f 50/69/65 13/70/66 49/71/67
f 49/71/67 13/70/66 12/72/68
f 49/71/67 12/72/68 48/73/69
f 48/73/69 12/72/68 11/74/70
f 48/73/69 11/74/70 47/75/71
f 47/75/71 11/74/70 10/76/72
f 47/75/71 10/76/72 46/77/73
f 46/77/73 10/76/72 9/78/74
f 9/79/74 36/80/75 46/81/73
f 46/81/73 36/80/75 52/82/76
f 52/82/76 36/83/75 58/84/77
f 58/84/77 36/83/75 35/85/78
f 58/84/77 35/85/78 57/86/79
f 57/86/79 35/85/78 34/87/80
f 57/86/79 34/87/80 56/88/81
f 56/88/81 34/87/80 33/89/82
f 56/88/81 33/89/82 55/90/83
f 55/90/83 33/89/82 32/91/84
f 55/90/83 32/91/84 54/92/85
f 54/92/85 32/91/84 31/93/86
f 54/92/85 31/93/86 53/94/87
f 53/94/87 31/93/86 30/95/88
f 30/96/88 29/97/89 53/98/87
f 53/98/87 29/97/89 59/99/90
f 59/99/90 29/100/89 64/101/91
f 64/101/91 29/100/89 28/102/92
f 64/101/91 28/102/92 63/103/93
f 63/103/93 28/102/92 27/104/94
f 63/103/93 27/104/94 62/105/95
f 62/105/95 27/104/94 26/106/96
f 62/105/95 26/106/96 61/107/97
f 61/107/97 26/106/96 25/108/98
f 61/107/97 25/108/98 60/109/99
f 60/109/99 25/108/98 24/110/100
f 60/109/99 24/110/100 38/111/47
f 38/111/47 24/110/100 23/112/45
f 5/113/101 7/114/102 6/115/103
f 6/115/103 7/114/102 8/116/104
f 3/117/105 45/118/106 4/119/107
f 4/119/107 45/118/106 51/120/108
f 4/119/107 51/120/108 50/121/109
f 6/122/110 38/123/111 3/117/105
f 3/117/105 38/123/111 37/124/112
f 3/117/105 37/124/112 44/125/113
f 8/126/114 53/127/115 6/122/110
f 6/122/110 53/127/115 59/128/116
f 6/122/110 59/128/116 64/129/117
f 4/119/107 52/130/118 8/126/114
f 8/126/114 52/130/118 58/131/119
f 8/126/114 58/131/119 57/132/120
f 64/129/117 63/133/121 6/122/110
f 6/122/110 63/133/121 62/134/122
f 6/122/110 62/134/122 61/135/123
f 61/135/123 60/136/124 6/122/110
f 6/122/110 60/136/124 38/123/111
f 44/125/113 43/137/125 3/117/105
f 3/117/105 43/137/125 42/138/126
f 3/117/105 42/138/126 41/139/127
f 41/139/127 40/140/128 3/117/105
f 3/117/105 40/140/128 39/141/129
f 3/117/105 39/141/129 45/118/106
f 50/121/109 49/142/130 4/119/107
f 4/119/107 49/142/130 48/143/131
f 4/119/107 48/143/131 47/144/132
f 47/144/132 46/145/133 4/119/107
f 4/119/107 46/145/133 52/130/118
f 57/132/120 56/146/134 8/126/114
f 8/126/114 56/146/134 55/147/135
f 8/126/114 55/147/135 54/148/136
f 54/148/136 53/127/115 8/126/114
# 64 vertices
# 148 texture params
# 136 normals
# 124 facets

# 1 groups
