# WaveFront *.obj file (generated by Autodesk ATF)

mtllib wifi pcb.mtl

g WIFI PCB

v -0.730000 0.100100 -0.607500
v -0.730000 0.100100 -0.282500
v -0.730000 0.105100 -0.282500
v -0.730000 0.105100 -0.607500
v -0.717500 0.100100 -0.620000
v -0.720735 0.100100 -0.619574
v -0.723750 0.100100 -0.618325
v -0.726339 0.100100 -0.616339
v -0.728325 0.100100 -0.613750
v -0.729574 0.100100 -0.610735
v -0.729574 0.105100 -0.610735
v -0.728325 0.105100 -0.613750
v -0.726339 0.105100 -0.616339
v -0.723750 0.105100 -0.618325
v -0.720735 0.105100 -0.619574
v -0.717500 0.105100 -0.620000
v -0.462500 0.100100 -0.620000
v -0.462500 0.105100 -0.620000
v -0.450000 0.100100 -0.607500
v -0.450426 0.100100 -0.610735
v -0.451675 0.100100 -0.613750
v -0.453661 0.100100 -0.616339
v -0.456250 0.100100 -0.618325
v -0.459265 0.100100 -0.619574
v -0.459265 0.105100 -0.619574
v -0.456250 0.105100 -0.618325
v -0.453661 0.105100 -0.616339
v -0.451675 0.105100 -0.613750
v -0.450426 0.105100 -0.610735
v -0.450000 0.105100 -0.607500
v -0.450000 0.100100 -0.282500
v -0.450000 0.105100 -0.282500
v -0.462500 0.100100 -0.270000
v -0.459265 0.100100 -0.270426
v -0.456250 0.100100 -0.271675
v -0.453661 0.100100 -0.273661
v -0.451675 0.100100 -0.276250
v -0.450426 0.100100 -0.279265
v -0.450426 0.105100 -0.279265
v -0.451675 0.105100 -0.276250
v -0.453661 0.105100 -0.273661
v -0.456250 0.105100 -0.271675
v -0.459265 0.105100 -0.270426
v -0.462500 0.105100 -0.270000
v -0.717500 0.100100 -0.270000
v -0.717500 0.105100 -0.270000
v -0.729574 0.100100 -0.279265
v -0.728325 0.100100 -0.276250
v -0.726339 0.100100 -0.273661
v -0.723750 0.100100 -0.271675
v -0.720735 0.100100 -0.270426
v -0.720735 0.105100 -0.270426
v -0.723750 0.105100 -0.271675
v -0.726339 0.105100 -0.273661
v -0.728325 0.105100 -0.276250
v -0.729574 0.105100 -0.279265
vt 0.000000 0.000000 0.000000
vt 0.325000 0.000000 0.000000
vt 0.000000 0.005000 0.000000
vt 0.325000 0.005000 0.000000
vt -0.005000 0.000000 0.000000
vt -0.000000 0.000000 0.000000
vt -0.005000 0.003272 0.000000
vt -0.000000 0.003272 0.000000
vt -0.005000 0.006545 0.000000
vt -0.000000 0.006545 0.000000
vt -0.005000 0.009817 0.000000
vt -0.000000 0.009817 0.000000
vt -0.005000 0.013090 0.000000
vt -0.000000 0.013090 0.000000
vt -0.005000 0.016362 0.000000
vt -0.000000 0.016362 0.000000
vt -0.005000 0.019635 0.000000
vt -0.000000 0.019635 0.000000
vt -0.000000 0.000000 0.000000
vt 0.255000 0.000000 0.000000
vt -0.000000 0.005000 0.000000
vt 0.255000 0.005000 0.000000
vt -0.005000 0.000000 0.000000
vt -0.000000 0.000000 0.000000
vt -0.005000 0.003272 0.000000
vt -0.000000 0.003272 0.000000
vt -0.005000 0.006545 0.000000
vt -0.000000 0.006545 0.000000
vt -0.005000 0.009817 0.000000
vt -0.000000 0.009817 0.000000
vt -0.005000 0.013090 0.000000
vt -0.000000 0.013090 0.000000
vt -0.005000 0.016362 0.000000
vt -0.000000 0.016362 0.000000
vt -0.005000 0.019635 0.000000
vt -0.000000 0.019635 0.000000
vt -0.000000 0.000000 0.000000
vt 0.325000 0.000000 0.000000
vt -0.000000 0.005000 0.000000
vt 0.325000 0.005000 0.000000
vt -0.005000 0.000000 0.000000
vt -0.000000 0.000000 0.000000
vt -0.005000 0.003272 0.000000
vt -0.000000 0.003272 0.000000
vt -0.005000 0.006545 0.000000
vt -0.000000 0.006545 0.000000
vt -0.005000 0.009817 0.000000
vt -0.000000 0.009817 0.000000
vt -0.005000 0.013090 0.000000
vt -0.000000 0.013090 0.000000
vt -0.005000 0.016362 0.000000
vt -0.000000 0.016362 0.000000
vt -0.005000 0.019635 0.000000
vt -0.000000 0.019635 0.000000
vt 0.000000 0.000000 0.000000
vt 0.255000 0.000000 0.000000
vt 0.000000 0.005000 0.000000
vt 0.255000 0.005000 0.000000
vt -0.005000 0.000000 0.000000
vt -0.000000 0.000000 0.000000
vt -0.005000 0.003272 0.000000
vt -0.000000 0.003272 0.000000
vt -0.005000 0.006545 0.000000
vt -0.000000 0.006545 0.000000
vt -0.005000 0.009817 0.000000
vt -0.000000 0.009817 0.000000
vt -0.005000 0.013090 0.000000
vt -0.000000 0.013090 0.000000
vt -0.005000 0.016362 0.000000
vt -0.000000 0.016362 0.000000
vt -0.005000 0.019635 0.000000
vt -0.000000 0.019635 0.000000
vt 0.139574 0.165735 0.000000
vt 0.138325 0.168750 0.000000
vt 0.140000 0.162500 0.000000
vt 0.136339 0.171339 0.000000
vt 0.133750 0.173325 0.000000
vt 0.130735 0.174574 0.000000
vt 0.127500 0.175000 0.000000
vt 0.140000 -0.162500 0.000000
vt 0.127500 -0.175000 0.000000
vt 0.130735 -0.174574 0.000000
vt -0.127500 0.175000 0.000000
vt -0.127500 -0.175000 0.000000
vt -0.140000 -0.162500 0.000000
vt -0.130735 -0.174574 0.000000
vt -0.133750 -0.173325 0.000000
vt -0.136339 -0.171339 0.000000
vt -0.138325 -0.168750 0.000000
vt -0.139574 -0.165735 0.000000
vt -0.140000 0.162500 0.000000
vt -0.130735 0.174574 0.000000
vt -0.133750 0.173325 0.000000
vt -0.136339 0.171339 0.000000
vt -0.138325 0.168750 0.000000
vt -0.139574 0.165735 0.000000
vt 0.133750 -0.173325 0.000000
vt 0.136339 -0.171339 0.000000
vt 0.138325 -0.168750 0.000000
vt 0.139574 -0.165735 0.000000
vt -0.130735 0.174574 0.000000
vt -0.140000 0.162500 0.000000
vt -0.127500 0.175000 0.000000
vt -0.140000 -0.162500 0.000000
vt -0.127500 -0.175000 0.000000
vt -0.130735 -0.174574 0.000000
vt -0.133750 -0.173325 0.000000
vt -0.136339 -0.171339 0.000000
vt -0.138325 -0.168750 0.000000
vt -0.139574 -0.165735 0.000000
vt -0.133750 0.173325 0.000000
vt -0.136339 0.171339 0.000000
vt -0.138325 0.168750 0.000000
vt -0.139574 0.165735 0.000000
vt 0.127500 -0.175000 0.000000
vt 0.127500 0.175000 0.000000
vt 0.140000 -0.162500 0.000000
vt 0.140000 0.162500 0.000000
vt 0.130735 -0.174574 0.000000
vt 0.133750 -0.173325 0.000000
vt 0.136339 -0.171339 0.000000
vt 0.138325 -0.168750 0.000000
vt 0.139574 -0.165735 0.000000
vt 0.139574 0.165735 0.000000
vt 0.138325 0.168750 0.000000
vt 0.136339 0.171339 0.000000
vt 0.133750 0.173325 0.000000
vt 0.130735 0.174574 0.000000
vn -1.000000 0.000000 -0.000000
vn -1.000000 0.000000 -0.000000
vn -1.000000 0.000000 -0.000000
vn -1.000000 0.000000 -0.000000
vn -0.000000 0.000000 -1.000000
vn -0.000000 0.000000 -1.000000
vn -0.258819 0.000000 -0.965926
vn -0.258819 0.000000 -0.965926
vn -0.500000 0.000000 -0.866025
vn -0.500000 0.000000 -0.866025
vn -0.707107 0.000000 -0.707107
vn -0.707107 0.000000 -0.707107
vn -0.866025 0.000000 -0.500000
vn -0.866025 0.000000 -0.500000
vn -0.965926 0.000000 -0.258819
vn -0.965926 0.000000 -0.258819
vn 0.000000 0.000000 -1.000000
vn 0.000000 0.000000 -1.000000
vn 1.000000 -0.000000 -0.000000
vn 1.000000 -0.000000 -0.000000
vn 0.965926 -0.000000 -0.258819
vn 0.965926 -0.000000 -0.258819
vn 0.866025 -0.000000 -0.500000
vn 0.866025 -0.000000 -0.500000
vn 0.707107 -0.000000 -0.707107
vn 0.707107 -0.000000 -0.707107
vn 0.500000 -0.000000 -0.866025
vn 0.500000 -0.000000 -0.866025
vn 0.258819 -0.000000 -0.965926
vn 0.258819 -0.000000 -0.965926
vn 1.000000 0.000000 0.000000
vn 1.000000 0.000000 0.000000
vn 0.000000 -0.000000 1.000000
vn 0.000000 -0.000000 1.000000
vn 0.258819 -0.000000 0.965926
vn 0.258819 -0.000000 0.965926
vn 0.500000 -0.000000 0.866025
vn 0.500000 -0.000000 0.866025
vn 0.707107 -0.000000 0.707107
vn 0.707107 -0.000000 0.707107
vn 0.866025 -0.000000 0.500000
vn 0.866025 -0.000000 0.500000
vn 0.965926 -0.000000 0.258819
vn 0.965926 -0.000000 0.258819
vn 0.000000 -0.000000 1.000000
vn 0.000000 -0.000000 1.000000
vn -0.965926 -0.000000 0.258819
vn -0.965926 -0.000000 0.258819
vn -0.866025 -0.000000 0.500000
vn -0.866025 -0.000000 0.500000
vn -0.707107 -0.000000 0.707107
vn -0.707107 -0.000000 0.707107
vn -0.500000 -0.000000 0.866025
vn -0.500000 -0.000000 0.866025
vn -0.258819 -0.000000 0.965926
vn -0.258819 -0.000000 0.965926
vn 0.000000 1.000000 0.000000
vn 0.000000 1.000000 0.000000
vn 0.000000 1.000000 0.000000
vn 0.000000 1.000000 0.000000
vn 0.000000 1.000000 0.000000
vn 0.000000 1.000000 0.000000
vn 0.000000 1.000000 0.000000
vn 0.000000 1.000000 0.000000
vn 0.000000 1.000000 0.000000
vn 0.000000 1.000000 0.000000
vn 0.000000 1.000000 0.000000
vn 0.000000 1.000000 0.000000
vn 0.000000 1.000000 0.000000
vn 0.000000 1.000000 0.000000
vn 0.000000 1.000000 0.000000
vn 0.000000 1.000000 0.000000
vn 0.000000 1.000000 0.000000
vn 0.000000 1.000000 0.000000
vn 0.000000 1.000000 0.000000
vn 0.000000 1.000000 0.000000
vn 0.000000 1.000000 0.000000
vn 0.000000 1.000000 0.000000
vn 0.000000 1.000000 0.000000
vn 0.000000 1.000000 0.000000
vn 0.000000 1.000000 0.000000
vn 0.000000 1.000000 0.000000
vn 0.000000 1.000000 0.000000
vn 0.000000 1.000000 0.000000
vn -0.000000 -1.000000 -0.000000
vn -0.000000 -1.000000 -0.000000
vn -0.000000 -1.000000 -0.000000
vn -0.000000 -1.000000 -0.000000
vn -0.000000 -1.000000 -0.000000
vn -0.000000 -1.000000 -0.000000
vn -0.000000 -1.000000 -0.000000
vn -0.000000 -1.000000 -0.000000
vn -0.000000 -1.000000 -0.000000
vn -0.000000 -1.000000 -0.000000
vn -0.000000 -1.000000 -0.000000
vn -0.000000 -1.000000 -0.000000
vn -0.000000 -1.000000 -0.000000
vn -0.000000 -1.000000 -0.000000
vn -0.000000 -1.000000 -0.000000
vn -0.000000 -1.000000 -0.000000
vn -0.000000 -1.000000 -0.000000
vn -0.000000 -1.000000 -0.000000
vn -0.000000 -1.000000 -0.000000
vn -0.000000 -1.000000 -0.000000
vn -0.000000 -1.000000 -0.000000
vn -0.000000 -1.000000 -0.000000
vn -0.000000 -1.000000 -0.000000
vn -0.000000 -1.000000 -0.000000
vn -0.000000 -1.000000 -0.000000
vn -0.000000 -1.000000 -0.000000
vn -0.000000 -1.000000 -0.000000
vn -0.000000 -1.000000 -0.000000
usemtl Steel_-_Satin
f 1/1/1 2/2/2 4/3/3
f 4/3/3 2/2/2 3/4/4
f 16/5/5 5/6/6 15/7/7
f 15/7/7 5/6/6 6/8/8
f 15/7/7 6/8/8 14/9/9
f 14/9/9 6/8/8 7/10/10
f 14/9/9 7/10/10 13/11/11
f 13/11/11 7/10/10 8/12/12
f 13/11/11 8/12/12 12/13/13
f 12/13/13 8/12/12 9/14/14
f 12/13/13 9/14/14 11/15/15
f 11/15/15 9/14/14 10/16/16
f 11/15/15 10/16/16 4/17/3
f 4/17/3 10/16/16 1/18/1
f 17/19/17 5/20/6 18/21/18
f 18/21/18 5/20/6 16/22/5
f 30/23/19 19/24/20 29/25/21
f 29/25/21 19/24/20 20/26/22
f 29/25/21 20/26/22 28/27/23
f 28/27/23 20/26/22 21/28/24
f 28/27/23 21/28/24 27/29/25
f 27/29/25 21/28/24 22/30/26
f 27/29/25 22/30/26 26/31/27
f 26/31/27 22/30/26 23/32/28
f 26/31/27 23/32/28 25/33/29
f 25/33/29 23/32/28 24/34/30
f 25/33/29 24/34/30 18/35/18
f 18/35/18 24/34/30 17/36/17
f 31/37/31 19/38/20 32/39/32
f 32/39/32 19/38/20 30/40/19
f 44/41/33 33/42/34 43/43/35
f 43/43/35 33/42/34 34/44/36
f 43/43/35 34/44/36 42/45/37
f 42/45/37 34/44/36 35/46/38
f 42/45/37 35/46/38 41/47/39
f 41/47/39 35/46/38 36/48/40
f 41/47/39 36/48/40 40/49/41
f 40/49/41 36/48/40 37/50/42
f 40/49/41 37/50/42 39/51/43
f 39/51/43 37/50/42 38/52/44
f 39/51/43 38/52/44 32/53/32
f 32/53/32 38/52/44 31/54/31
f 45/55/45 33/56/34 46/57/46
f 46/57/46 33/56/34 44/58/33
f 3/59/4 2/60/2 56/61/47
f 56/61/47 2/60/2 47/62/48
f 56/61/47 47/62/48 55/63/49
f 55/63/49 47/62/48 48/64/50
f 55/63/49 48/64/50 54/65/51
f 54/65/51 48/64/50 49/66/52
f 54/65/51 49/66/52 53/67/53
f 53/67/53 49/66/52 50/68/54
f 53/67/53 50/68/54 52/69/55
f 52/69/55 50/68/54 51/70/56
f 52/69/55 51/70/56 46/71/46
f 46/71/46 51/70/56 45/72/45
f 56/73/57 55/74/58 3/75/59
f 3/75/59 55/74/58 54/76/60
f 3/75/59 54/76/60 53/77/61
f 53/77/61 52/78/62 3/75/59
f 3/75/59 52/78/62 46/79/63
f 3/75/59 46/79/63 4/80/64
f 4/80/64 46/79/63 16/81/65
f 4/80/64 16/81/65 15/82/66
f 46/79/63 44/83/67 16/81/65
f 16/81/65 44/83/67 18/84/68
f 18/84/68 44/83/67 30/85/69
f 18/84/68 30/85/69 25/86/70
f 25/86/70 30/85/69 26/87/71
f 26/87/71 30/85/69 27/88/72
f 27/88/72 30/85/69 28/89/73
f 28/89/73 30/85/69 29/90/74
f 30/85/69 44/83/67 32/91/75
f 32/91/75 44/83/67 43/92/76
f 32/91/75 43/92/76 42/93/77
f 42/93/77 41/94/78 32/91/75
f 32/91/75 41/94/78 40/95/79
f 32/91/75 40/95/79 39/96/80
f 15/82/66 14/97/81 4/80/64
f 4/80/64 14/97/81 13/98/82
f 4/80/64 13/98/82 12/99/83
f 12/99/83 11/100/84 4/80/64
f 51/101/85 2/102/86 45/103/87
f 45/103/87 2/102/86 1/104/88
f 45/103/87 1/104/88 5/105/89
f 5/105/89 1/104/88 6/106/90
f 6/106/90 1/104/88 7/107/91
f 7/107/91 1/104/88 8/108/92
f 8/108/92 1/104/88 9/109/93
f 9/109/93 1/104/88 10/110/94
f 51/101/85 50/111/95 2/102/86
f 2/102/86 50/111/95 49/112/96
f 2/102/86 49/112/96 48/113/97
f 48/113/97 47/114/98 2/102/86
f 5/105/89 17/115/99 45/103/87
f 45/103/87 17/115/99 33/116/100
f 33/116/100 17/115/99 19/117/101
f 33/116/100 19/117/101 31/118/102
f 17/115/99 24/119/103 19/117/101
f 19/117/101 24/119/103 23/120/104
f 19/117/101 23/120/104 22/121/105
f 22/121/105 21/122/106 19/117/101
f 19/117/101 21/122/106 20/123/107
f 38/124/108 37/125/109 31/118/102
f 31/118/102 37/125/109 36/126/110
f 31/118/102 36/126/110 35/127/111
f 35/127/111 34/128/112 31/118/102
f 31/118/102 34/128/112 33/116/100
# 56 vertices
# 128 texture params
# 112 normals
# 108 facets

# 1 groups
